<svg width="100" height="30" viewBox="0 0 100 30" fill="none" xmlns="http://www.w3.org/2000/svg">
<rect x="1" y="1" width="98" height="28" rx="14" stroke="#492A8D" stroke-width="2"/>
<path d="M44.3215 19.732C44.2855 19.936 44.1775 20.08 43.9975 20.164C43.8175 20.236 43.6255 20.26 43.4215 20.236C43.2175 20.212 43.0375 20.14 42.8815 20.02C42.7255 19.888 42.6655 19.72 42.7015 19.516C42.7735 19.024 42.8395 18.472 42.8995 17.86C42.9715 17.236 43.0315 16.612 43.0795 15.988C43.1275 15.352 43.1575 14.752 43.1695 14.188C43.1935 13.624 43.1995 13.15 43.1875 12.766C43.1875 12.622 43.1515 12.472 43.0795 12.316C43.0075 12.16 42.9235 12.01 42.8275 11.866C42.7315 11.722 42.6295 11.584 42.5215 11.452C42.4135 11.32 42.3175 11.2 42.2335 11.092C42.1135 10.936 42.0895 10.774 42.1615 10.606C42.2335 10.426 42.3475 10.276 42.5035 10.156C42.6715 10.036 42.8515 9.97 43.0435 9.958C43.2355 9.934 43.3975 10 43.5295 10.156C43.9015 10.624 44.2015 11.056 44.4295 11.452C44.6575 11.848 44.7775 12.274 44.7895 12.73C44.7895 13.162 44.7775 13.678 44.7535 14.278C44.7415 14.866 44.7115 15.484 44.6635 16.132C44.6275 16.768 44.5795 17.404 44.5195 18.04C44.4595 18.664 44.3935 19.228 44.3215 19.732ZM35.5375 15.862C35.2735 15.85 35.0695 15.766 34.9255 15.61C34.7815 15.454 34.7035 15.238 34.6915 14.962C34.6675 14.41 34.6375 13.834 34.6015 13.234C34.5775 12.634 34.5415 12.004 34.4935 11.344C34.4695 11.068 34.5595 10.858 34.7635 10.714C34.9675 10.57 35.1955 10.492 35.4475 10.48C35.6755 10.48 35.9395 10.48 36.2395 10.48C36.5515 10.468 36.8695 10.468 37.1935 10.48C37.5295 10.48 37.8655 10.492 38.2015 10.516C38.5495 10.528 38.8735 10.546 39.1735 10.57C39.3895 10.594 39.5395 10.696 39.6235 10.876C39.7195 11.044 39.7555 11.23 39.7315 11.434C39.7195 11.626 39.6535 11.8 39.5335 11.956C39.4255 12.112 39.2695 12.178 39.0655 12.154C38.5735 12.106 38.0755 12.076 37.5715 12.064C37.0795 12.052 36.6055 12.052 36.1495 12.064C36.1855 12.436 36.2095 12.808 36.2215 13.18C36.2455 13.54 36.2695 13.894 36.2935 14.242C36.7735 14.254 37.3135 14.242 37.9135 14.206C38.5255 14.17 39.1255 14.11 39.7135 14.026C39.9175 14.002 40.0795 14.068 40.1995 14.224C40.3315 14.368 40.4095 14.542 40.4335 14.746C40.4695 14.95 40.4455 15.148 40.3615 15.34C40.2775 15.52 40.1335 15.628 39.9295 15.664C39.5815 15.724 39.2155 15.772 38.8315 15.808C38.4595 15.832 38.0755 15.856 37.6795 15.88C37.2955 15.892 36.9175 15.898 36.5455 15.898C36.1855 15.898 35.8495 15.886 35.5375 15.862ZM37.9495 20.758C37.9135 20.974 37.8055 21.124 37.6255 21.208C37.4455 21.28 37.2535 21.304 37.0495 21.28C36.8575 21.244 36.6835 21.166 36.5275 21.046C36.3835 20.926 36.3295 20.764 36.3655 20.56C36.4255 20.248 36.4675 19.93 36.4915 19.606C36.5155 19.27 36.5335 18.946 36.5455 18.634C36.0655 18.658 35.5975 18.67 35.1415 18.67C34.6855 18.67 34.2595 18.664 33.8635 18.652C33.6595 18.64 33.5035 18.55 33.3955 18.382C33.2995 18.202 33.2575 18.016 33.2695 17.824C33.2815 17.62 33.3415 17.434 33.4495 17.266C33.5575 17.098 33.7135 17.02 33.9175 17.032C34.4335 17.056 35.0095 17.068 35.6455 17.068C36.2815 17.056 36.9235 17.032 37.5715 16.996C38.2195 16.96 38.8495 16.918 39.4615 16.87C40.0855 16.822 40.6435 16.774 41.1355 16.726C41.3395 16.714 41.5015 16.786 41.6215 16.942C41.7415 17.098 41.8075 17.278 41.8195 17.482C41.8435 17.674 41.8075 17.86 41.7115 18.04C41.6275 18.208 41.4775 18.304 41.2615 18.328C40.8175 18.376 40.3315 18.424 39.8035 18.472C39.2875 18.508 38.7415 18.538 38.1655 18.562C38.1415 18.922 38.1115 19.3 38.0755 19.696C38.0395 20.08 37.9975 20.434 37.9495 20.758ZM47.8813 20.218C47.6653 20.206 47.5093 20.11 47.4133 19.93C47.3293 19.75 47.2933 19.564 47.3053 19.372C47.3293 19.168 47.3953 18.988 47.5033 18.832C47.6233 18.676 47.7853 18.604 47.9893 18.616C48.4453 18.652 48.9613 18.694 49.5373 18.742C50.1133 18.778 50.7133 18.808 51.3373 18.832C51.3613 18.616 51.3793 18.394 51.3913 18.166C51.4033 17.938 51.4153 17.716 51.4273 17.5C51.3313 17.488 51.2353 17.482 51.1393 17.482C51.0553 17.47 50.9713 17.452 50.8873 17.428C50.6593 17.404 50.4493 17.344 50.2573 17.248C50.0773 17.152 49.9153 17.038 49.7713 16.906C49.6393 16.762 49.5373 16.6 49.4653 16.42C49.3933 16.24 49.3633 16.054 49.3753 15.862C49.3873 15.706 49.4053 15.538 49.4293 15.358C49.4533 15.166 49.4773 14.986 49.5013 14.818C49.5253 14.65 49.5493 14.494 49.5733 14.35C49.6093 14.206 49.6393 14.092 49.6633 14.008C49.7233 13.804 49.8193 13.636 49.9513 13.504C50.0953 13.372 50.2873 13.294 50.5273 13.27C50.7553 13.258 51.0073 13.246 51.2833 13.234C51.5713 13.21 51.8593 13.192 52.1473 13.18C52.4473 13.168 52.7413 13.156 53.0293 13.144C53.3293 13.132 53.6053 13.126 53.8573 13.126C53.8693 12.958 53.8693 12.772 53.8573 12.568C53.8573 12.352 53.8453 12.148 53.8213 11.956C53.5933 11.956 53.3053 11.95 52.9573 11.938C52.6093 11.914 52.2433 11.884 51.8593 11.848C51.4753 11.812 51.0973 11.77 50.7253 11.722C50.3653 11.662 50.0533 11.596 49.7893 11.524C49.5973 11.476 49.4713 11.356 49.4113 11.164C49.3633 10.96 49.3633 10.762 49.4113 10.57C49.4713 10.366 49.5733 10.198 49.7173 10.066C49.8613 9.934 50.0353 9.898 50.2393 9.958C50.5033 10.042 50.8213 10.114 51.1933 10.174C51.5653 10.222 51.9373 10.258 52.3093 10.282C52.6933 10.306 53.0593 10.324 53.4073 10.336C53.7553 10.348 54.0433 10.354 54.2713 10.354C54.5593 10.354 54.7993 10.426 54.9913 10.57C55.1833 10.702 55.3033 10.912 55.3513 11.2C55.3753 11.344 55.3933 11.53 55.4053 11.758C55.4293 11.986 55.4413 12.226 55.4413 12.478C55.4533 12.73 55.4593 12.982 55.4593 13.234C55.4713 13.486 55.4773 13.72 55.4773 13.936C55.4773 14.188 55.3993 14.386 55.2433 14.53C55.0873 14.662 54.8773 14.728 54.6133 14.728C54.0253 14.728 53.4073 14.74 52.7593 14.764C52.1113 14.788 51.5653 14.812 51.1213 14.836C51.0853 14.932 51.0493 15.04 51.0133 15.16C50.9893 15.268 50.9713 15.376 50.9593 15.484C50.9473 15.58 50.9593 15.67 50.9953 15.754C51.0313 15.826 51.1033 15.868 51.2113 15.88C51.4033 15.904 51.6313 15.928 51.8953 15.952C52.1593 15.964 52.4293 15.976 52.7053 15.988C52.9813 15.988 53.2573 15.994 53.5333 16.006C53.8213 16.006 54.0853 16 54.3253 15.988C54.5413 15.988 54.6973 16.072 54.7933 16.24C54.9013 16.396 54.9553 16.576 54.9553 16.78C54.9553 16.984 54.9013 17.176 54.7933 17.356C54.6853 17.524 54.5293 17.608 54.3253 17.608C54.1213 17.62 53.9113 17.626 53.6953 17.626C53.4793 17.614 53.2573 17.602 53.0293 17.59C53.0173 17.806 52.9993 18.028 52.9753 18.256C52.9633 18.484 52.9453 18.7 52.9213 18.904C53.5813 18.928 54.2113 18.946 54.8113 18.958C55.4113 18.958 55.9333 18.946 56.3773 18.922C56.5813 18.91 56.7373 18.988 56.8453 19.156C56.9533 19.324 57.0133 19.51 57.0253 19.714C57.0373 19.918 56.9893 20.11 56.8813 20.29C56.7853 20.458 56.6353 20.542 56.4313 20.542C55.8913 20.566 55.2493 20.572 54.5053 20.56C53.7613 20.536 52.9933 20.506 52.2013 20.47C51.4213 20.434 50.6473 20.398 49.8793 20.362C49.1233 20.314 48.4573 20.266 47.8813 20.218ZM68.1429 19.696C68.1189 19.9 68.0109 20.044 67.8189 20.128C67.6389 20.2 67.4469 20.224 67.2429 20.2C67.0389 20.176 66.8589 20.104 66.7029 19.984C66.5469 19.852 66.4869 19.684 66.5229 19.48C66.5949 19 66.6609 18.454 66.7209 17.842C66.7929 17.218 66.8529 16.594 66.9009 15.97C66.9489 15.346 66.9789 14.752 66.9909 14.188C67.0149 13.612 67.0209 13.132 67.0089 12.748C67.0089 12.604 66.9729 12.46 66.9009 12.316C66.8289 12.16 66.7449 12.01 66.6489 11.866C66.5529 11.722 66.4509 11.584 66.3429 11.452C66.2349 11.308 66.1389 11.182 66.0549 11.074C65.9349 10.93 65.9109 10.768 65.9829 10.588C66.0549 10.408 66.1689 10.264 66.3249 10.156C66.4929 10.036 66.6729 9.97 66.8649 9.958C67.0569 9.934 67.2189 10 67.3509 10.156C67.7229 10.624 68.0229 11.056 68.2509 11.452C68.4789 11.848 68.5989 12.274 68.6109 12.73C68.6109 12.982 68.6109 13.27 68.6109 13.594C68.6109 13.906 68.5989 14.242 68.5749 14.602C68.9589 14.602 69.3369 14.62 69.7089 14.656C70.0929 14.692 70.4409 14.734 70.7529 14.782C70.9809 14.818 71.1189 14.938 71.1669 15.142C71.2149 15.334 71.2329 15.508 71.2209 15.664C71.1969 15.82 71.1309 15.988 71.0229 16.168C70.9269 16.348 70.7649 16.42 70.5369 16.384C70.2609 16.336 69.9369 16.3 69.5649 16.276C69.1929 16.24 68.8329 16.216 68.4849 16.204C68.4369 16.828 68.3829 17.446 68.3229 18.058C68.2749 18.658 68.2149 19.204 68.1429 19.696ZM63.4629 17.428C63.4389 17.62 63.3369 17.758 63.1569 17.842C62.9769 17.914 62.7849 17.944 62.5809 17.932C62.3889 17.908 62.2149 17.842 62.0589 17.734C61.9029 17.626 61.8369 17.476 61.8609 17.284C61.9449 16.672 62.0049 16.048 62.0409 15.412C62.0889 14.764 62.1129 14.212 62.1129 13.756C61.8729 13.792 61.6089 13.828 61.3209 13.864C61.0329 13.9 60.7389 13.93 60.4389 13.954C60.1389 13.966 59.8389 13.972 59.5389 13.972C59.2389 13.972 58.9569 13.954 58.6929 13.918C58.4649 13.894 58.3029 13.792 58.2069 13.612C58.1229 13.432 58.0869 13.24 58.0989 13.036C58.1229 12.832 58.2009 12.658 58.3329 12.514C58.4649 12.358 58.6389 12.292 58.8549 12.316C59.1069 12.34 59.3889 12.352 59.7009 12.352C60.0249 12.34 60.3549 12.322 60.6909 12.298C61.0389 12.262 61.3809 12.226 61.7169 12.19C62.0649 12.142 62.3949 12.094 62.7069 12.046C62.8149 12.034 62.9229 12.04 63.0309 12.064C63.1509 12.076 63.2589 12.112 63.3549 12.172C63.4509 12.232 63.5349 12.31 63.6069 12.406C63.6789 12.502 63.7149 12.61 63.7149 12.73C63.7389 13.486 63.7269 14.254 63.6789 15.034C63.6309 15.802 63.5589 16.6 63.4629 17.428ZM82.4667 19.696C82.4307 19.9 82.3227 20.044 82.1427 20.128C81.9627 20.2 81.7707 20.224 81.5667 20.2C81.3747 20.176 81.2007 20.104 81.0447 19.984C80.8887 19.852 80.8287 19.684 80.8647 19.48C80.9487 19 81.0207 18.454 81.0807 17.842C81.1407 17.218 81.1887 16.594 81.2247 15.97C81.2727 15.346 81.3027 14.752 81.3147 14.188C81.3387 13.612 81.3447 13.132 81.3327 12.748C81.3327 12.604 81.2967 12.46 81.2247 12.316C81.1527 12.16 81.0687 12.01 80.9727 11.866C80.8767 11.722 80.7747 11.584 80.6667 11.452C80.5707 11.308 80.4807 11.182 80.3967 11.074C80.2767 10.93 80.2527 10.768 80.3247 10.588C80.3967 10.408 80.5107 10.264 80.6667 10.156C80.8227 10.036 80.9967 9.97 81.1887 9.958C81.3807 9.934 81.5427 10 81.6747 10.156C82.0467 10.624 82.3467 11.056 82.5747 11.452C82.8027 11.848 82.9227 12.274 82.9347 12.73C82.9347 13.15 82.9227 13.66 82.8987 14.26C82.8867 14.848 82.8567 15.46 82.8087 16.096C82.7727 16.732 82.7247 17.368 82.6647 18.004C82.6047 18.628 82.5387 19.192 82.4667 19.696ZM77.8227 17.428C77.7987 17.62 77.6967 17.758 77.5167 17.842C77.3367 17.914 77.1447 17.944 76.9407 17.932C76.7487 17.908 76.5747 17.842 76.4187 17.734C76.2627 17.626 76.1967 17.476 76.2207 17.284C76.3167 16.672 76.3827 16.048 76.4187 15.412C76.4667 14.764 76.4907 14.212 76.4907 13.756C76.2507 13.792 75.9867 13.828 75.6987 13.864C75.4107 13.9 75.1167 13.93 74.8167 13.954C74.5167 13.966 74.2167 13.972 73.9167 13.972C73.6167 13.972 73.3347 13.954 73.0707 13.918C72.8427 13.894 72.6807 13.792 72.5847 13.612C72.5007 13.432 72.4707 13.24 72.4947 13.036C72.5187 12.832 72.5967 12.658 72.7287 12.514C72.8607 12.358 73.0347 12.292 73.2507 12.316C73.5027 12.34 73.7847 12.352 74.0967 12.352C74.4207 12.34 74.7507 12.322 75.0867 12.298C75.4227 12.262 75.7587 12.226 76.0947 12.19C76.4427 12.142 76.7667 12.094 77.0667 12.046C77.1747 12.034 77.2827 12.04 77.3907 12.064C77.5107 12.076 77.6187 12.112 77.7147 12.172C77.8107 12.232 77.8887 12.31 77.9487 12.406C78.0207 12.502 78.0567 12.61 78.0567 12.73C78.0807 13.486 78.0687 14.254 78.0207 15.034C77.9847 15.802 77.9187 16.6 77.8227 17.428Z" fill="#121212"/>
<path d="M21 20L16 15L21 10V20Z" fill="#121212"/>
</svg>
