<svg width="120" height="36" viewBox="0 0 120 36" fill="none" xmlns="http://www.w3.org/2000/svg">
<g clip-path="url(#clip0_366_11)">
<path d="M98.5563 35.2731H90.5042L86.8432 21.657H85.3804V35.2731H77.7281C77.6788 35.2731 77.6028 35.535 77.399 35.209L77.391 0.895427L77.5216 0.622811C81.016 0.680274 84.7716 0.342177 88.2474 0.55733C93.3392 0.872709 97.1028 3.66836 97.7556 8.9082C98.2165 12.6072 97.6863 16.4359 94.766 18.9896C94.473 19.2462 93.3752 19.8917 93.3685 20.1122L98.5563 35.2744V35.2731ZM85.3791 16.5815C87.8238 16.659 89.2652 15.7156 89.7368 13.2767C90.0259 11.7827 89.922 8.60083 88.8389 7.43821C88.6124 7.19499 87.7398 6.70321 87.4427 6.70321H85.3804V16.5829L85.3791 16.5815Z" fill="#513FA1" stroke="#EB9632" stroke-miterlimit="10"/>
<path d="M33.0741 35.273L39.6074 17.3191C38.4017 13.143 36.5526 9.15937 35.0072 5.0982C34.4583 3.65494 33.9227 2.17292 33.4724 0.696251L41.5978 0.622752L44.8524 10.7069L48.1057 0.626761C48.2683 0.680215 48.4788 0.561279 48.5787 0.561279H55.8327C55.7981 1.21743 55.501 1.8522 55.2692 2.46558C53.3921 7.43548 51.2791 12.3319 49.4353 17.3165L55.9659 35.2717H47.6474L44.1863 24.9911L40.4614 35.2717H33.0741V35.273Z" fill="#513FA1" stroke="#EB9632" stroke-miterlimit="10"/>
<path d="M19.7651 10.441H12.7775C12.3951 9.86503 12.6456 9.03649 12.519 8.29749C12.0994 5.85196 9.30433 5.21185 8.51964 7.63866C7.19539 11.7373 13.9085 14.7935 16.5011 17.1201C19.7171 20.0066 20.4085 22.6085 20.1701 26.9343C19.7917 33.7871 14.6932 36.2981 8.38109 35.8116C3.98737 35.4735 0.0665894 32.0846 0.0665894 27.4621V24.7253H7.65235V26.7939C7.65235 26.8487 7.81489 27.6933 7.84686 27.8002C8.45303 29.7981 11.2281 30.1829 12.2286 28.3134C14.576 23.9288 6.91562 20.5759 4.32309 18.2506C1.6786 15.8813 0.544863 13.3142 0.594156 9.70065C0.696738 2.24648 5.34225 -0.271206 12.2499 0.156427C16.0668 0.392961 19.7651 3.92227 19.7651 7.83778V10.441Z" fill="#513FA1" stroke="#EB9632" stroke-miterlimit="10"/>
<path d="M107.206 24.7252C107.205 26.544 107.304 29.353 109.663 29.5361C112.344 29.7446 112.867 26.977 112.157 24.9003C111.298 22.3893 104.958 19.2355 102.811 16.786C100.264 13.8794 99.5701 9.19549 100.984 5.59937C103.779 -1.50869 116.827 -2.09936 118.989 5.76508C119.408 7.29119 119.361 8.91085 119.584 10.4396L112.256 10.5158C111.944 10.2966 112.228 9.57234 112.213 9.28369C112.164 8.29613 111.784 6.36643 110.593 6.17667C107.909 5.74637 107.464 8.76652 108.38 10.6655C109.247 12.4602 114.21 15.471 115.993 17.0479C119.029 19.7353 119.943 21.8908 119.933 26.0175C119.915 33.4931 114.546 36.6709 107.556 35.7916C101.792 35.0659 99.321 30.1468 99.6207 24.7266H107.206V24.7252Z" fill="#513FA1" stroke="#EB9632" stroke-miterlimit="10"/>
<path d="M74.5986 0.561279V7.10272H66.3467V14.5796L73.5328 14.4473V20.8551H66.3467V28.8652H74.8651V35.273H58.2281V0.694915C58.3586 0.737678 58.5172 0.561279 58.5611 0.561279H74.5986Z" fill="#513FA1" stroke="#EB9632" stroke-miterlimit="10"/>
<path d="M30.8106 0.55603H22.9584V35.2731H30.8106V0.55603Z" fill="#513FA1" stroke="#EB9632" stroke-miterlimit="10"/>
</g>
<defs>
<clipPath id="clip0_366_11">
<rect width="120" height="36" fill="white"/>
</clipPath>
</defs>
</svg>
