<svg width="189" height="104" viewBox="0 0 189 104" fill="none" xmlns="http://www.w3.org/2000/svg">
<path d="M67.2812 24.5156C66.3698 26.599 65.556 28.4219 64.8398 29.9844C64.1237 31.5469 63.5052 32.8815 62.9844 33.9883C62.3984 35.2253 61.9102 36.332 61.5195 37.3086C61.194 38.0247 60.7708 39.0013 60.25 40.2383C59.7292 41.3451 59.0781 42.8099 58.2969 44.6328C57.5807 46.3906 56.6367 48.6693 55.4648 51.4688C54.8789 49.0599 54.1628 46.944 53.3164 45.1211C52.4701 43.2982 51.5586 41.7031 50.582 40.3359C49.6055 38.9688 48.5638 37.862 47.457 37.0156C46.4154 36.1042 45.3737 35.3555 44.332 34.7695C41.9232 33.4674 39.3841 32.7513 36.7148 32.6211C33.1992 32.8164 30.4323 33.4023 28.4141 34.3789C26.4609 35.2904 25.0286 36.3646 24.1172 37.6016C23.2057 38.7734 22.7174 40.0104 22.6523 41.3125C22.5872 42.5495 22.75 43.5911 23.1406 44.4375C23.4661 45.2188 24.6055 46.1302 26.5586 47.1719C28.5768 48.2135 30.9857 49.418 33.7852 50.7852C36.6497 52.0872 39.7096 53.5846 42.9648 55.2773C46.2201 56.9049 49.2148 58.7279 51.9492 60.7461C54.7487 62.6992 57.0924 64.8477 58.9805 67.1914C60.9336 69.4701 62.0078 71.9115 62.2031 74.5156C62.3984 77.8359 62.3659 80.8307 62.1055 83.5C61.8451 86.1693 60.9336 88.4479 59.3711 90.3359C57.8086 92.224 55.3672 93.7214 52.0469 94.8281C48.7917 95.9349 44.2669 96.6185 38.4727 96.8789C32.4831 97.1393 27.5677 96.8138 23.7266 95.9023C19.8854 94.9909 16.7604 93.7539 14.3516 92.1914C12.0078 90.6289 10.25 88.9036 9.07812 87.0156C7.97135 85.1276 7.15755 83.3372 6.63672 81.6445C6.11589 79.8867 5.75781 78.3893 5.5625 77.1523C5.36719 75.8503 5.04167 75.069 4.58594 74.8086C4.0651 74.4831 3.54427 74.1901 3.02344 73.9297C2.56771 73.6693 2.07943 73.4414 1.55859 73.2461C1.03776 72.9857 0.516927 72.7578 -0.00390625 72.5625L28.4141 67.9727C26.7865 69.2747 25.5169 70.4792 24.6055 71.5859C23.7591 72.6927 23.1081 73.6693 22.6523 74.5156C22.1315 75.4922 21.7734 76.4036 21.5781 77.25C21.4479 78.1615 21.7409 79.3008 22.457 80.668C23.1732 82.0352 24.1497 83.3698 25.3867 84.6719C26.6888 85.9089 28.1862 86.9505 29.8789 87.7969C31.5716 88.6432 33.3294 89.0013 35.1523 88.8711C37.431 88.6758 39.2865 88.1224 40.7188 87.2109C42.151 86.2344 43.2253 85.0299 43.9414 83.5977C44.7227 82.1654 45.1784 80.6029 45.3086 78.9102C45.4388 77.2174 45.276 75.5573 44.8203 73.9297C44.4297 72.237 43.7786 70.6745 42.8672 69.2422C41.9557 67.7448 40.8815 66.5078 39.6445 65.5312C38.5378 64.75 36.8125 64.0013 34.4688 63.2852C32.1901 62.569 29.6185 61.7878 26.7539 60.9414C23.9544 60.0951 21.0573 59.1185 18.0625 58.0117C15.1328 56.9049 12.4635 55.5378 10.0547 53.9102C7.71094 52.2826 5.82292 50.362 4.39062 48.1484C3.02344 45.9349 2.5026 43.2656 2.82812 40.1406C3.08854 37.4714 3.9349 35.2578 5.36719 33.5C6.86458 31.6771 8.72005 30.2448 10.9336 29.2031C13.2122 28.0964 15.7188 27.2826 18.4531 26.7617C21.2526 26.2409 24.0846 25.9479 26.9492 25.8828C29.8789 25.7526 32.7435 25.7852 35.543 25.9805C38.4076 26.1758 40.9792 26.4036 43.2578 26.6641C45.5365 26.9245 47.457 27.1849 49.0195 27.4453C50.6471 27.6406 51.6562 27.7708 52.0469 27.8359C53.7396 27.9661 55.4323 27.9336 57.125 27.7383C58.6224 27.6081 60.25 27.3151 62.0078 26.8594C63.8307 26.3385 65.5885 25.5573 67.2812 24.5156Z" fill="black"/>
<path d="M73.5586 70.9883C75.1992 71.0352 76.5586 71.0703 77.6367 71.0938C78.7383 71.0938 79.6289 71.0938 80.3086 71.0938H82.1719H92.6484C92.6953 71.5625 92.7305 72.0195 92.7539 72.4648C92.8008 72.8867 92.8242 73.2617 92.8242 73.5898C92.8242 73.9883 92.8125 74.3516 92.7891 74.6797C92.7656 75.0078 92.7305 75.3594 92.6836 75.7344C92.6367 76.0625 92.5898 76.4141 92.543 76.7891C92.4961 77.1641 92.4141 77.5508 92.2969 77.9492C91.9688 76.6836 91.5234 75.7227 90.9609 75.0664C90.4219 74.4102 89.8711 73.9297 89.3086 73.625C88.6523 73.2734 87.9609 73.0859 87.2344 73.0625C86.2734 73.1094 85.5234 73.1914 84.9844 73.3086C84.4453 73.4258 84.0234 73.5898 83.7188 73.8008C83.4141 74.0117 83.1797 74.2578 83.0156 74.5391C82.875 74.7969 82.7227 75.0898 82.5586 75.418C82.418 75.6992 82.2891 76.1328 82.1719 76.7188C82.0547 77.2109 81.9375 77.8789 81.8203 78.7227C81.7266 79.5664 81.6211 80.6562 81.5039 81.9922C82.1367 81.8047 82.6406 81.6289 83.0156 81.4648C83.4141 81.3008 83.7305 81.1602 83.9648 81.043C84.2227 80.9023 84.4102 80.7734 84.5273 80.6562C84.6211 80.5156 84.7617 80.2578 84.9492 79.8828C85.0898 79.5547 85.2773 79.1094 85.5117 78.5469C85.7695 77.9844 86.0742 77.2109 86.4258 76.2266C86.4727 77.3047 86.4961 78.207 86.4961 78.9336C86.4961 79.6367 86.5078 80.2109 86.5312 80.6562C86.5312 81.1719 86.543 81.582 86.5664 81.8867V83.2227C86.5664 83.7148 86.5664 84.3828 86.5664 85.2266C86.5898 86.0469 86.625 87.0898 86.6719 88.3555C86.3906 87.4883 86.1328 86.8086 85.8984 86.3164C85.6875 85.8008 85.5 85.4141 85.3359 85.1562C85.1484 84.8516 84.9844 84.6406 84.8438 84.5234C84.6797 84.4766 84.457 84.4297 84.1758 84.3828C83.918 84.3594 83.5898 84.3477 83.1914 84.3477C82.8164 84.3477 82.3359 84.4062 81.75 84.5234C81.6797 85.8125 81.668 86.8555 81.7148 87.6523C81.7852 88.4258 81.8789 89.0234 81.9961 89.4453C82.1133 89.9375 82.2539 90.2891 82.418 90.5C82.6289 90.7109 83.0508 90.8867 83.6836 91.0273C84.3164 91.1445 85.0312 91.1914 85.8281 91.168C86.6484 91.1211 87.4805 90.9805 88.3242 90.7461C89.168 90.5117 89.918 90.125 90.5742 89.5859C91.0664 89.1406 91.5938 88.5781 92.1562 87.8984C92.625 87.3125 93.1406 86.5742 93.7031 85.6836C94.2891 84.793 94.8633 83.7148 95.4258 82.4492C95.332 83.5039 95.2617 84.3828 95.2148 85.0859C95.1914 85.7656 95.1562 86.3164 95.1094 86.7383C95.0625 87.2305 95.0273 87.6055 95.0039 87.8633C95.0039 88.1445 94.9688 88.543 94.8984 89.0586C94.8516 89.5039 94.7695 90.1133 94.6523 90.8867C94.5586 91.6367 94.4297 92.5977 94.2656 93.7695C93.1641 93.793 92.1211 93.8164 91.1367 93.8398C90.1523 93.8398 89.2852 93.8516 88.5352 93.875C87.6445 93.8984 86.8242 93.9219 86.0742 93.9453C85.3008 93.9453 84.4453 93.9805 83.5078 94.0508C82.6875 94.0977 81.7148 94.168 80.5898 94.2617C79.4883 94.3555 78.2695 94.4844 76.9336 94.6484C77.0508 93.0547 77.1328 91.5547 77.1797 90.1484C77.25 88.7188 77.2969 87.4648 77.3203 86.3867C77.3438 85.1211 77.3438 83.9492 77.3203 82.8711C77.4375 80.1758 77.3906 77.9961 77.1797 76.332C76.9688 74.668 76.7227 73.6016 76.4414 73.1328C76.3008 72.9688 76.1016 72.7695 75.8438 72.5352C75.6328 72.3477 75.3398 72.125 74.9648 71.8672C74.5898 71.6094 74.1211 71.3164 73.5586 70.9883ZM100.77 71.1992C101.941 71.2695 102.926 71.3281 103.723 71.375C104.543 71.3984 105.223 71.4219 105.762 71.4453C106.371 71.4688 106.887 71.4688 107.309 71.4453C107.73 71.4219 108.305 71.3633 109.031 71.2695C109.641 71.1992 110.449 71.0938 111.457 70.9531C112.488 70.7891 113.766 70.5781 115.289 70.3203C114.75 70.8594 114.328 71.3516 114.023 71.7969C113.742 72.2188 113.52 72.582 113.355 72.8867C113.168 73.2617 113.039 73.5781 112.969 73.8359C112.922 74.0703 112.969 74.6562 113.109 75.5938C113.25 76.5312 113.449 77.6445 113.707 78.9336C113.965 80.1992 114.246 81.5586 114.551 83.0117C114.855 84.4414 115.16 85.7891 115.465 87.0547C115.77 88.2969 116.039 89.3633 116.273 90.2539C116.531 91.1211 116.719 91.6367 116.836 91.8008C117.188 92.293 117.41 92.6211 117.504 92.7852C117.598 92.9258 117.762 93.0547 117.996 93.1719C118.09 93.2188 118.242 93.2891 118.453 93.3828C118.641 93.4766 118.887 93.5938 119.191 93.7344C119.52 93.875 119.93 94.0391 120.422 94.2266C119.508 94.2734 118.723 94.3086 118.066 94.332C117.41 94.332 116.871 94.3438 116.449 94.3672C115.957 94.3906 115.535 94.4141 115.184 94.4375C114.832 94.4375 114.41 94.4609 113.918 94.5078C113.496 94.5547 112.945 94.6016 112.266 94.6484C111.609 94.6953 110.836 94.7422 109.945 94.7891C110.414 94.4609 110.789 94.168 111.07 93.9102C111.375 93.6289 111.609 93.3945 111.773 93.207C111.961 92.9727 112.09 92.7617 112.16 92.5742C112.207 92.3633 112.242 92.0469 112.266 91.625C112.289 91.25 112.289 90.7578 112.266 90.1484C112.242 89.5156 112.184 88.6953 112.09 87.6875L102.844 88.6367C102.609 89.0352 102.434 89.3867 102.316 89.6914C102.199 89.9727 102.117 90.2188 102.07 90.4297C102 90.6875 101.977 90.8984 102 91.0625C102.047 91.25 102.129 91.4727 102.246 91.7305C102.363 91.9648 102.527 92.2461 102.738 92.5742C102.973 92.8789 103.312 93.2422 103.758 93.6641C103.172 93.6406 102.574 93.6289 101.965 93.6289C101.355 93.6289 100.793 93.6406 100.277 93.6641C99.668 93.6875 99.0703 93.7109 98.4844 93.7344C97.8984 93.7578 97.2305 93.793 96.4805 93.8398C95.8477 93.8867 95.1094 93.9453 94.2656 94.0156C93.3984 94.0625 92.4727 94.1328 91.4883 94.2266C92.0977 93.9453 92.6133 93.6641 93.0352 93.3828C93.457 93.0781 93.8086 92.7969 94.0898 92.5391C94.418 92.2578 94.6992 91.9883 94.9336 91.7305C95.0977 91.4961 95.4258 90.957 95.918 90.1133C96.4102 89.2461 96.9609 88.2266 97.5703 87.0547C98.2031 85.8828 98.8594 84.6289 99.5391 83.293C100.242 81.957 100.875 80.7031 101.438 79.5312C102 78.3359 102.457 77.3047 102.809 76.4375C103.16 75.5703 103.336 75.0078 103.336 74.75C103.289 74.4453 103.172 74.1055 102.984 73.7305C102.82 73.4023 102.562 73.0273 102.211 72.6055C101.883 72.1836 101.402 71.7148 100.77 71.1992ZM111.668 85.0859C111.527 84.2656 111.398 83.5625 111.281 82.9766C111.164 82.3672 111.07 81.8633 111 81.4648C110.906 80.9961 110.836 80.5859 110.789 80.2344C110.719 79.9062 110.637 79.4844 110.543 78.9688C110.449 78.5234 110.332 77.9727 110.191 77.3164C110.074 76.6367 109.922 75.8281 109.734 74.8906C108.398 77.5625 107.355 79.6367 106.605 81.1133C105.879 82.5664 105.352 83.6328 105.023 84.3125C104.625 85.1094 104.402 85.5781 104.355 85.7188L111.668 85.0859ZM141.375 69.2656C141.047 70.0156 140.754 70.6719 140.496 71.2344C140.238 71.7969 140.016 72.2773 139.828 72.6758C139.617 73.1211 139.441 73.5195 139.301 73.8711C139.184 74.1289 139.031 74.4805 138.844 74.9258C138.656 75.3242 138.422 75.8516 138.141 76.5078C137.883 77.1406 137.543 77.9609 137.121 78.9688C136.91 78.1016 136.652 77.3398 136.348 76.6836C136.043 76.0273 135.715 75.4531 135.363 74.9609C135.012 74.4688 134.637 74.0703 134.238 73.7656C133.863 73.4375 133.488 73.168 133.113 72.957C132.246 72.4883 131.332 72.2305 130.371 72.1836C129.105 72.2539 128.109 72.4648 127.383 72.8164C126.68 73.1445 126.164 73.5312 125.836 73.9766C125.508 74.3984 125.332 74.8438 125.309 75.3125C125.285 75.7578 125.344 76.1328 125.484 76.4375C125.602 76.7188 126.012 77.0469 126.715 77.4219C127.441 77.7969 128.309 78.2305 129.316 78.7227C130.348 79.1914 131.449 79.7305 132.621 80.3398C133.793 80.9258 134.871 81.582 135.855 82.3086C136.863 83.0117 137.707 83.7852 138.387 84.6289C139.09 85.4492 139.477 86.3281 139.547 87.2656C139.617 88.4609 139.605 89.5391 139.512 90.5C139.418 91.4609 139.09 92.2812 138.527 92.9609C137.965 93.6406 137.086 94.1797 135.891 94.5781C134.719 94.9766 133.09 95.2227 131.004 95.3164C128.848 95.4102 127.078 95.293 125.695 94.9648C124.312 94.6367 123.188 94.1914 122.32 93.6289C121.477 93.0664 120.844 92.4453 120.422 91.7656C120.023 91.0859 119.73 90.4414 119.543 89.832C119.355 89.1992 119.227 88.6602 119.156 88.2148C119.086 87.7461 118.969 87.4648 118.805 87.3711C118.617 87.2539 118.43 87.1484 118.242 87.0547C118.078 86.9609 117.902 86.8789 117.715 86.8086C117.527 86.7148 117.34 86.6328 117.152 86.5625L127.383 84.9102C126.797 85.3789 126.34 85.8125 126.012 86.2109C125.707 86.6094 125.473 86.9609 125.309 87.2656C125.121 87.6172 124.992 87.9453 124.922 88.25C124.875 88.5781 124.98 88.9883 125.238 89.4805C125.496 89.9727 125.848 90.4531 126.293 90.9219C126.762 91.3672 127.301 91.7422 127.91 92.0469C128.52 92.3516 129.152 92.4805 129.809 92.4336C130.629 92.3633 131.297 92.1641 131.812 91.8359C132.328 91.4844 132.715 91.0508 132.973 90.5352C133.254 90.0195 133.418 89.457 133.465 88.8477C133.512 88.2383 133.453 87.6406 133.289 87.0547C133.148 86.4453 132.914 85.8828 132.586 85.3672C132.258 84.8281 131.871 84.3828 131.426 84.0312C131.027 83.75 130.406 83.4805 129.562 83.2227C128.742 82.9648 127.816 82.6836 126.785 82.3789C125.777 82.0742 124.734 81.7227 123.656 81.3242C122.602 80.9258 121.641 80.4336 120.773 79.8477C119.93 79.2617 119.25 78.5703 118.734 77.7734C118.242 76.9766 118.055 76.0156 118.172 74.8906C118.266 73.9297 118.57 73.1328 119.086 72.5C119.625 71.8438 120.293 71.3281 121.09 70.9531C121.91 70.5547 122.812 70.2617 123.797 70.0742C124.805 69.8867 125.824 69.7812 126.855 69.7578C127.91 69.7109 128.941 69.7227 129.949 69.793C130.98 69.8633 131.906 69.9453 132.727 70.0391C133.547 70.1328 134.238 70.2266 134.801 70.3203C135.387 70.3906 135.75 70.4375 135.891 70.4609C136.5 70.5078 137.109 70.4961 137.719 70.4258C138.258 70.3789 138.844 70.2734 139.477 70.1094C140.133 69.9219 140.766 69.6406 141.375 69.2656ZM152.59 68.4922C153.855 68.5391 155.133 68.7734 156.422 69.1953C157.734 69.5938 158.941 70.25 160.043 71.1641C161.145 72.0547 162.082 73.2148 162.855 74.6445C163.629 76.0508 164.109 77.7734 164.297 79.8125C164.461 81.4766 164.25 83.1289 163.664 84.7695C163.102 86.3867 162.316 87.875 161.309 89.2344C160.301 90.5938 159.141 91.7539 157.828 92.7148C156.516 93.6523 155.203 94.2734 153.891 94.5781C153.094 94.7656 152.215 94.7891 151.254 94.6484C150.316 94.4844 149.355 94.1914 148.371 93.7695C147.41 93.3242 146.461 92.7617 145.523 92.082C144.609 91.4023 143.777 90.6289 143.027 89.7617C142.277 88.8711 141.645 87.9102 141.129 86.8789C140.637 85.8477 140.332 84.7695 140.215 83.6445C140.098 82.707 140.086 81.6758 140.18 80.5508C140.297 79.4023 140.52 78.2656 140.848 77.1406C141.199 75.9922 141.68 74.8906 142.289 73.8359C142.922 72.7578 143.719 71.8203 144.68 71.0234C145.641 70.2031 146.766 69.5703 148.055 69.125C149.367 68.6562 150.879 68.4453 152.59 68.4922ZM146.297 82.7305C145.969 85.2383 146.203 87.2539 147 88.7773C147.82 90.3008 149.051 91.2266 150.691 91.5547C151.488 91.7188 152.25 91.5547 152.977 91.0625C153.727 90.5469 154.406 89.8086 155.016 88.8477C155.625 87.8867 156.152 86.7617 156.598 85.4727C157.043 84.1836 157.371 82.8359 157.582 81.4297C157.793 80.0234 157.805 78.7578 157.617 77.6328C157.453 76.4844 157.16 75.5117 156.738 74.7148C156.316 73.8945 155.801 73.2617 155.191 72.8164C154.605 72.3711 153.996 72.125 153.363 72.0781C152.262 72.0078 151.301 72.3008 150.48 72.957C149.66 73.5898 148.969 74.4219 148.406 75.4531C147.844 76.4844 147.387 77.6445 147.035 78.9336C146.707 80.2227 146.461 81.4883 146.297 82.7305ZM164.543 70.0742C165.598 70.2617 166.465 70.3906 167.145 70.4609C167.824 70.5312 168.375 70.5898 168.797 70.6367C169.289 70.6836 169.676 70.6953 169.957 70.6719H171.012C171.387 70.6719 171.855 70.6719 172.418 70.6719C173.004 70.6484 173.73 70.6367 174.598 70.6367C175.09 71.7852 175.535 72.8398 175.934 73.8008C176.355 74.7617 176.707 75.582 176.988 76.2617C177.316 77.082 177.621 77.8203 177.902 78.4766C178.23 79.2969 178.582 80.1992 178.957 81.1836C179.332 82.168 179.672 83.0938 179.977 83.9609C180.305 84.8281 180.574 85.543 180.785 86.1055C180.996 86.668 181.102 86.9258 181.102 86.8789C181.102 86.8555 181.113 86.6211 181.137 86.1758C181.16 85.707 181.184 85.1328 181.207 84.4531C181.23 83.75 181.254 82.9883 181.277 82.168C181.324 81.3242 181.348 80.5156 181.348 79.7422C181.371 78.9453 181.383 78.2188 181.383 77.5625C181.383 76.9062 181.359 76.4141 181.312 76.0859C181.242 75.6875 181.102 75.2305 180.891 74.7148C180.703 74.2695 180.445 73.7422 180.117 73.1328C179.789 72.5 179.332 71.7852 178.746 70.9883C179.707 71.0117 180.492 71.0234 181.102 71.0234C181.711 71.0234 182.203 71.0234 182.578 71.0234C183 71.0234 183.328 71.0117 183.562 70.9883C183.867 70.9883 184.242 70.9648 184.688 70.918C185.086 70.8711 185.578 70.8359 186.164 70.8125C186.773 70.7656 187.523 70.707 188.414 70.6367C187.898 71.1055 187.488 71.5508 187.184 71.9727C186.879 72.3945 186.633 72.7695 186.445 73.0977C186.234 73.4727 186.094 73.8242 186.023 74.1523C185.93 74.5742 185.848 75.2656 185.777 76.2266C185.73 77.1641 185.672 78.2188 185.602 79.3906C185.555 80.5625 185.508 81.7812 185.461 83.0469C185.414 84.3125 185.367 85.4727 185.32 86.5273C185.32 87.3242 185.297 88.1797 185.25 89.0938C185.203 89.8672 185.156 90.7461 185.109 91.7305C185.062 92.6914 185.004 93.6641 184.934 94.6484L181.805 94.7188C180.891 93.1016 180.117 91.7188 179.484 90.5703C178.875 89.3984 178.371 88.4375 177.973 87.6875C177.527 86.8203 177.152 86.0938 176.848 85.5078C176.59 84.9453 176.25 84.3008 175.828 83.5742C175.477 82.9648 175.031 82.2148 174.492 81.3242C173.977 80.4336 173.355 79.4141 172.629 78.2656C172.559 79.8828 172.523 81.2656 172.523 82.4141C172.547 83.5391 172.582 84.4766 172.629 85.2266C172.699 86.0938 172.781 86.8203 172.875 87.4062C172.992 87.9688 173.156 88.6016 173.367 89.3047C173.555 89.9141 173.777 90.6289 174.035 91.4492C174.316 92.2695 174.656 93.1953 175.055 94.2266C173.672 94.1562 172.641 94.1211 171.961 94.1211H170.906C170.578 94.1211 170.133 94.1562 169.57 94.2266C169.102 94.2734 168.457 94.3438 167.637 94.4375C166.84 94.5312 165.844 94.6602 164.648 94.8242C165.211 94.1445 165.656 93.5234 165.984 92.9609C166.336 92.375 166.605 91.8828 166.793 91.4844C167.027 91.0156 167.191 90.6055 167.285 90.2539C167.355 89.8789 167.402 89.2344 167.426 88.3203C167.449 87.3828 167.449 86.3281 167.426 85.1562C167.426 83.9609 167.402 82.707 167.355 81.3945C167.332 80.082 167.297 78.8633 167.25 77.7383C167.203 76.6133 167.145 75.6523 167.074 74.8555C167.027 74.0586 166.992 73.5664 166.969 73.3789C166.898 73.0742 166.758 72.7461 166.547 72.3945C166.359 72.0898 166.113 71.75 165.809 71.375C165.504 70.9766 165.082 70.543 164.543 70.0742Z" fill="black"/>
<path d="M75.3516 27.7773C76.1484 27.8711 76.8164 27.9414 77.3555 27.9883C77.918 28.0117 78.375 28.0469 78.7266 28.0938C79.1484 28.1406 79.4766 28.1641 79.7109 28.1641C79.9688 28.1875 80.3555 28.1758 80.8711 28.1289C81.3164 28.082 81.9141 28.0234 82.6641 27.9531C83.4375 27.8828 84.4219 27.7773 85.6172 27.6367C85.0781 28.1055 84.6445 28.5625 84.3164 29.0078C84.0117 29.4297 83.7773 29.8047 83.6133 30.1328C83.4023 30.5312 83.2734 30.9062 83.2266 31.2578C83.1328 31.8203 83.0508 32.5938 82.9805 33.5781C82.9336 34.5391 82.8867 35.5938 82.8398 36.7422C82.793 37.8906 82.7695 39.0742 82.7695 40.293C82.7695 41.5117 82.7812 42.6719 82.8047 43.7734C82.8516 44.8516 82.9219 45.8125 83.0156 46.6562C83.1328 47.5 83.2734 48.1094 83.4375 48.4844C83.6719 48.9062 83.918 49.3281 84.1758 49.75C84.4102 50.1016 84.6914 50.4648 85.0195 50.8398C85.3477 51.2148 85.7227 51.5195 86.1445 51.7539C84.7617 51.6836 83.6602 51.6484 82.8398 51.6484H81.5742C81.1992 51.6484 80.7188 51.6719 80.1328 51.7188C79.6406 51.7656 79.0195 51.8125 78.2695 51.8594C77.5195 51.9062 76.6172 51.9766 75.5625 52.0703C76.1016 51.4844 76.5234 50.9219 76.8281 50.3828C77.1328 49.8438 77.3789 49.375 77.5664 48.9766C77.7773 48.5078 77.918 48.0625 77.9883 47.6406C78.082 47.0312 78.1523 46.2812 78.1992 45.3906C78.2695 44.4766 78.3164 43.5039 78.3398 42.4727C78.3633 41.418 78.3633 40.3516 78.3398 39.2734C78.3398 38.1719 78.3164 37.1172 78.2695 36.1094C78.2227 35.1016 78.1523 34.1875 78.0586 33.3672C77.9883 32.5469 77.8945 31.8906 77.7773 31.3984C77.707 31.0938 77.5664 30.7539 77.3555 30.3789C77.168 30.0508 76.9102 29.6758 76.582 29.2539C76.2773 28.8086 75.8672 28.3164 75.3516 27.7773ZM85.0617 28.1289C86.093 28.1758 86.9719 28.2109 87.6984 28.2344C88.425 28.2578 89.0227 28.2812 89.4914 28.3047C90.0539 28.3281 90.5109 28.3516 90.8625 28.375C91.2375 28.3984 91.7063 28.4102 92.2688 28.4102C93.2297 28.4102 94.5891 28.3398 96.3469 28.1992C95.9719 28.3867 95.6789 28.5977 95.468 28.832C95.257 29.043 95.093 29.2539 94.9758 29.4648C94.8352 29.7227 94.7297 29.9688 94.6594 30.2031C94.6125 30.4844 94.718 30.918 94.9758 31.5039C95.1633 31.9961 95.5031 32.6641 95.9953 33.5078C96.4875 34.3516 97.2141 35.4414 98.175 36.7773C99.3234 35.0898 100.214 33.7656 100.847 32.8047C101.48 31.8438 101.948 31.1172 102.253 30.625C102.605 30.0391 102.816 29.6523 102.886 29.4648C102.863 29.3477 102.769 29.1836 102.605 28.9727C102.464 28.7852 102.23 28.5625 101.902 28.3047C101.597 28.0234 101.14 27.6836 100.53 27.2852C101.491 27.4258 102.288 27.5312 102.921 27.6016C103.577 27.6719 104.105 27.7188 104.503 27.7422C104.972 27.7656 105.359 27.7656 105.663 27.7422C105.968 27.7188 106.413 27.6953 106.999 27.6719C107.491 27.6484 108.148 27.625 108.968 27.6016C109.812 27.5781 110.89 27.543 112.202 27.4961C111.687 27.7539 111.241 28 110.866 28.2344C110.491 28.4688 110.175 28.6797 109.917 28.8672C109.613 29.1016 109.343 29.3008 109.109 29.4648C108.827 29.7461 108.312 30.3203 107.562 31.1875C106.929 31.9375 106.027 33.0391 104.855 34.4922C103.683 35.9219 102.113 37.8672 100.144 40.3281C101.738 42.0156 103.027 43.3516 104.011 44.3359C104.995 45.3203 105.769 46.0703 106.331 46.5859C106.988 47.1953 107.468 47.6055 107.773 47.8164C108.054 47.9805 108.441 48.1914 108.933 48.4492C109.355 48.6836 109.905 48.9766 110.585 49.3281C111.265 49.6562 112.132 50.0547 113.187 50.5234H107.316C106.823 50.5234 106.226 50.5469 105.523 50.5938C104.913 50.6406 104.163 50.6875 103.273 50.7344C102.382 50.7812 101.339 50.8633 100.144 50.9805C100.566 50.7227 100.87 50.4766 101.058 50.2422C101.269 49.9844 101.409 49.7617 101.48 49.5742C101.573 49.3633 101.585 49.1758 101.515 49.0117C101.398 48.7773 101.198 48.4258 100.917 47.957C100.659 47.5586 100.296 46.9961 99.8273 46.2695C99.3586 45.543 98.7141 44.582 97.8938 43.3867C96.9563 44.3945 96.2297 45.2383 95.7141 45.918C95.2219 46.5742 94.8469 47.1016 94.5891 47.5C94.3078 47.9688 94.1203 48.3438 94.0266 48.625C94.0266 48.8828 94.0852 49.1406 94.2023 49.3984C94.3195 49.6328 94.507 49.8906 94.7648 50.1719C95.0461 50.4531 95.4563 50.7227 95.9953 50.9805L85.5891 51.4375C86.4328 50.8516 87.1359 50.3242 87.6984 49.8555C88.2609 49.3633 88.718 48.9531 89.0695 48.625C89.468 48.2266 89.7844 47.875 90.0188 47.5703C90.2531 47.2188 90.6164 46.7031 91.1086 46.0234C91.507 45.4375 92.0578 44.6523 92.7609 43.668C93.4875 42.6836 94.4133 41.418 95.5383 39.8711C94.2961 37.8789 93.2883 36.2969 92.5148 35.125C91.7648 33.9531 91.1555 33.0508 90.6867 32.418C90.1477 31.6914 89.7492 31.1875 89.4914 30.9062C89.257 30.6953 88.9289 30.4609 88.507 30.2031C88.1555 29.9688 87.6984 29.6875 87.1359 29.3594C86.5734 29.0078 85.882 28.5977 85.0617 28.1289ZM109.045 27.9883C110.686 28.0352 112.045 28.0703 113.123 28.0938C114.225 28.0938 115.116 28.0938 115.795 28.0938H117.659H128.135C128.182 28.5625 128.217 29.0195 128.241 29.4648C128.287 29.8867 128.311 30.2617 128.311 30.5898C128.311 30.9883 128.299 31.3516 128.276 31.6797C128.252 32.0078 128.217 32.3594 128.17 32.7344C128.123 33.0625 128.077 33.4141 128.03 33.7891C127.983 34.1641 127.901 34.5508 127.784 34.9492C127.455 33.6836 127.01 32.7227 126.448 32.0664C125.909 31.4102 125.358 30.9297 124.795 30.625C124.139 30.2734 123.448 30.0859 122.721 30.0625C121.76 30.1094 121.01 30.1914 120.471 30.3086C119.932 30.4258 119.51 30.5898 119.205 30.8008C118.901 31.0117 118.666 31.2578 118.502 31.5391C118.362 31.7969 118.209 32.0898 118.045 32.418C117.905 32.6992 117.776 33.1328 117.659 33.7188C117.541 34.2109 117.424 34.8789 117.307 35.7227C117.213 36.5664 117.108 37.6562 116.991 38.9922C117.623 38.8047 118.127 38.6289 118.502 38.4648C118.901 38.3008 119.217 38.1602 119.452 38.043C119.709 37.9023 119.897 37.7734 120.014 37.6562C120.108 37.5156 120.248 37.2578 120.436 36.8828C120.577 36.5547 120.764 36.1094 120.998 35.5469C121.256 34.9844 121.561 34.2109 121.912 33.2266C121.959 34.3047 121.983 35.207 121.983 35.9336C121.983 36.6367 121.995 37.2109 122.018 37.6562C122.018 38.1719 122.03 38.582 122.053 38.8867V40.2227C122.053 40.7148 122.053 41.3828 122.053 42.2266C122.077 43.0469 122.112 44.0898 122.159 45.3555C121.877 44.4883 121.62 43.8086 121.385 43.3164C121.174 42.8008 120.987 42.4141 120.823 42.1562C120.635 41.8516 120.471 41.6406 120.33 41.5234C120.166 41.4766 119.944 41.4297 119.662 41.3828C119.405 41.3594 119.077 41.3477 118.678 41.3477C118.303 41.3477 117.823 41.4062 117.237 41.5234C117.166 42.8125 117.155 43.8555 117.202 44.6523C117.272 45.4258 117.366 46.0234 117.483 46.4453C117.6 46.9375 117.741 47.2891 117.905 47.5C118.116 47.7109 118.537 47.8867 119.17 48.0273C119.803 48.1445 120.518 48.1914 121.315 48.168C122.135 48.1211 122.967 47.9805 123.811 47.7461C124.655 47.5117 125.405 47.125 126.061 46.5859C126.553 46.1406 127.08 45.5781 127.643 44.8984C128.112 44.3125 128.627 43.5742 129.19 42.6836C129.776 41.793 130.35 40.7148 130.912 39.4492C130.819 40.5039 130.748 41.3828 130.702 42.0859C130.678 42.7656 130.643 43.3164 130.596 43.7383C130.549 44.2305 130.514 44.6055 130.491 44.8633C130.491 45.1445 130.455 45.543 130.385 46.0586C130.338 46.5039 130.256 47.1133 130.139 47.8867C130.045 48.6367 129.916 49.5977 129.752 50.7695C128.651 50.793 127.608 50.8164 126.623 50.8398C125.639 50.8398 124.772 50.8516 124.022 50.875C123.131 50.8984 122.311 50.9219 121.561 50.9453C120.787 50.9453 119.932 50.9805 118.995 51.0508C118.174 51.0977 117.202 51.168 116.077 51.2617C114.975 51.3555 113.756 51.4844 112.42 51.6484C112.537 50.0547 112.62 48.5547 112.666 47.1484C112.737 45.7188 112.784 44.4648 112.807 43.3867C112.83 42.1211 112.83 40.9492 112.807 39.8711C112.924 37.1758 112.877 34.9961 112.666 33.332C112.455 31.668 112.209 30.6016 111.928 30.1328C111.787 29.9688 111.588 29.7695 111.33 29.5352C111.12 29.3477 110.827 29.125 110.452 28.8672C110.077 28.6094 109.608 28.3164 109.045 27.9883ZM132.537 26.3359C133.287 26.4531 133.966 26.5586 134.576 26.6523C135.185 26.7227 135.713 26.7812 136.158 26.8281C136.673 26.8984 137.13 26.957 137.529 27.0039C138.021 27.0742 138.759 26.9922 139.744 26.7578C140.728 26.5 141.806 26.2656 142.978 26.0547C144.173 25.8203 145.392 25.6914 146.634 25.668C147.877 25.6211 149.013 25.8438 150.045 26.3359C151.076 26.8281 151.92 27.3203 152.576 27.8125C153.232 28.3047 153.748 28.832 154.123 29.3945C154.521 29.9336 154.802 30.5078 154.966 31.1172C155.13 31.7266 155.224 32.3945 155.248 33.1211C155.224 34.1992 154.966 35.2422 154.474 36.25C154.263 36.6719 153.982 37.1172 153.63 37.5859C153.302 38.0312 152.892 38.4648 152.4 38.8867C151.908 39.3086 151.322 39.707 150.642 40.082C149.986 40.457 149.213 40.7852 148.322 41.0664C149.189 41.3242 149.904 41.6289 150.466 41.9805C151.052 42.332 151.521 42.6602 151.873 42.9648C152.295 43.3398 152.611 43.7031 152.822 44.0547C153.08 44.5469 153.255 44.9688 153.349 45.3203C153.443 45.6719 153.502 46.0117 153.525 46.3398C153.572 46.6445 153.63 46.9609 153.701 47.2891C153.771 47.6172 153.923 47.9922 154.158 48.4141C154.345 48.7422 154.568 49.082 154.826 49.4336C155.06 49.7383 155.33 50.0664 155.634 50.418C155.963 50.7695 156.361 51.1094 156.83 51.4375C156.173 51.4609 155.564 51.4727 155.002 51.4727C154.463 51.4727 153.994 51.4727 153.595 51.4727C153.127 51.4727 152.681 51.4609 152.259 51.4375C151.838 51.4141 151.31 51.4023 150.677 51.4023C150.138 51.4023 149.447 51.4023 148.603 51.4023C147.783 51.4023 146.787 51.4141 145.615 51.4375C146.13 51.0391 146.552 50.6406 146.88 50.2422C147.209 49.8438 147.466 49.4805 147.654 49.1523C147.865 48.7773 148.017 48.4141 148.111 48.0625C148.228 47.4297 148.24 46.7734 148.146 46.0938C148.076 45.5078 147.888 44.8633 147.584 44.1602C147.279 43.4336 146.787 42.707 146.107 41.9805C145.427 42.0977 144.853 42.1914 144.384 42.2617C143.939 42.3086 143.552 42.3555 143.224 42.4023C142.849 42.4492 142.545 42.4844 142.31 42.5078C142.099 42.5312 141.865 42.5547 141.607 42.5781C141.396 42.6016 141.162 42.6367 140.904 42.6836C140.67 42.707 140.447 42.7422 140.236 42.7891C140.189 43.7969 140.189 44.6758 140.236 45.4258C140.283 46.1523 140.341 46.7617 140.412 47.2539C140.505 47.8398 140.611 48.3438 140.728 48.7656C140.845 49.1875 141.009 49.5977 141.22 49.9961C141.384 50.3242 141.595 50.6758 141.853 51.0508C142.111 51.4023 142.404 51.6953 142.732 51.9297C142.123 51.9297 141.537 51.9297 140.974 51.9297C140.435 51.9297 139.943 51.918 139.498 51.8945C138.982 51.8945 138.49 51.8828 138.021 51.8594C137.552 51.8359 137.025 51.8242 136.439 51.8242C135.947 51.8242 135.361 51.8242 134.681 51.8242C134.025 51.8242 133.31 51.8359 132.537 51.8594C133.146 51.2266 133.627 50.6875 133.978 50.2422C134.33 49.7969 134.599 49.4219 134.787 49.1172C134.998 48.7891 135.127 48.5078 135.173 48.2734C135.22 47.8984 135.255 47.2305 135.279 46.2695C135.326 45.2852 135.361 44.1602 135.384 42.8945C135.408 41.6289 135.42 40.3047 135.42 38.9219C135.42 37.5391 135.408 36.25 135.384 35.0547C135.361 33.8359 135.338 32.793 135.314 31.9258C135.291 31.0586 135.267 30.5078 135.244 30.2734C135.173 29.8516 135.021 29.4297 134.787 29.0078C134.599 28.6328 134.33 28.2109 133.978 27.7422C133.627 27.2734 133.146 26.8047 132.537 26.3359ZM145.826 38.7109C146.06 38.5703 146.259 38.4297 146.423 38.2891C146.588 38.1484 146.728 37.9258 146.845 37.6211C146.963 37.293 147.056 36.8359 147.127 36.25C147.22 35.6641 147.326 34.8672 147.443 33.8594C147.537 32.8516 147.466 32.0195 147.232 31.3633C147.021 30.707 146.728 30.1914 146.353 29.8164C146.002 29.418 145.603 29.1484 145.158 29.0078C144.736 28.8438 144.361 28.7617 144.033 28.7617C143.377 28.7617 142.732 28.9609 142.099 29.3594C141.466 29.7578 140.986 30.2969 140.658 30.9766C140.541 31.2812 140.435 31.7852 140.341 32.4883C140.271 33.0977 140.224 33.9414 140.201 35.0195C140.177 36.0977 140.213 37.5156 140.306 39.2734C141.197 39.4141 141.982 39.4727 142.662 39.4492C143.341 39.4023 143.916 39.3203 144.384 39.2031C144.947 39.0859 145.427 38.9219 145.826 38.7109ZM180.708 26.2656C180.38 27.0156 180.087 27.6719 179.829 28.2344C179.571 28.7969 179.348 29.2773 179.161 29.6758C178.95 30.1211 178.774 30.5195 178.634 30.8711C178.516 31.1289 178.364 31.4805 178.177 31.9258C177.989 32.3242 177.755 32.8516 177.473 33.5078C177.216 34.1406 176.876 34.9609 176.454 35.9688C176.243 35.1016 175.985 34.3398 175.68 33.6836C175.376 33.0273 175.048 32.4531 174.696 31.9609C174.345 31.4688 173.97 31.0703 173.571 30.7656C173.196 30.4375 172.821 30.168 172.446 29.957C171.579 29.4883 170.665 29.2305 169.704 29.1836C168.438 29.2539 167.442 29.4648 166.716 29.8164C166.012 30.1445 165.497 30.5312 165.169 30.9766C164.841 31.3984 164.665 31.8438 164.641 32.3125C164.618 32.7578 164.677 33.1328 164.817 33.4375C164.934 33.7188 165.345 34.0469 166.048 34.4219C166.774 34.7969 167.641 35.2305 168.649 35.7227C169.68 36.1914 170.782 36.7305 171.954 37.3398C173.126 37.9258 174.204 38.582 175.188 39.3086C176.196 40.0117 177.04 40.7852 177.72 41.6289C178.423 42.4492 178.809 43.3281 178.88 44.2656C178.95 45.4609 178.938 46.5391 178.845 47.5C178.751 48.4609 178.423 49.2812 177.86 49.9609C177.298 50.6406 176.419 51.1797 175.223 51.5781C174.052 51.9766 172.423 52.2227 170.337 52.3164C168.18 52.4102 166.411 52.293 165.028 51.9648C163.645 51.6367 162.52 51.1914 161.653 50.6289C160.809 50.0664 160.177 49.4453 159.755 48.7656C159.356 48.0859 159.063 47.4414 158.876 46.832C158.688 46.1992 158.559 45.6602 158.489 45.2148C158.419 44.7461 158.302 44.4648 158.137 44.3711C157.95 44.2539 157.762 44.1484 157.575 44.0547C157.411 43.9609 157.235 43.8789 157.048 43.8086C156.86 43.7148 156.673 43.6328 156.485 43.5625L166.716 41.9102C166.13 42.3789 165.673 42.8125 165.345 43.2109C165.04 43.6094 164.805 43.9609 164.641 44.2656C164.454 44.6172 164.325 44.9453 164.255 45.25C164.208 45.5781 164.313 45.9883 164.571 46.4805C164.829 46.9727 165.18 47.4531 165.626 47.9219C166.095 48.3672 166.634 48.7422 167.243 49.0469C167.852 49.3516 168.485 49.4805 169.141 49.4336C169.962 49.3633 170.63 49.1641 171.145 48.8359C171.661 48.4844 172.048 48.0508 172.305 47.5352C172.587 47.0195 172.751 46.457 172.798 45.8477C172.845 45.2383 172.786 44.6406 172.622 44.0547C172.481 43.4453 172.247 42.8828 171.919 42.3672C171.591 41.8281 171.204 41.3828 170.759 41.0312C170.36 40.75 169.739 40.4805 168.895 40.2227C168.075 39.9648 167.149 39.6836 166.118 39.3789C165.11 39.0742 164.067 38.7227 162.989 38.3242C161.934 37.9258 160.973 37.4336 160.106 36.8477C159.262 36.2617 158.583 35.5703 158.067 34.7734C157.575 33.9766 157.387 33.0156 157.505 31.8906C157.598 30.9297 157.903 30.1328 158.419 29.5C158.958 28.8438 159.626 28.3281 160.423 27.9531C161.243 27.5547 162.145 27.2617 163.13 27.0742C164.137 26.8867 165.157 26.7812 166.188 26.7578C167.243 26.7109 168.274 26.7227 169.282 26.793C170.313 26.8633 171.239 26.9453 172.059 27.0391C172.88 27.1328 173.571 27.2266 174.134 27.3203C174.72 27.3906 175.083 27.4375 175.223 27.4609C175.833 27.5078 176.442 27.4961 177.052 27.4258C177.591 27.3789 178.177 27.2734 178.809 27.1094C179.466 26.9219 180.098 26.6406 180.708 26.2656Z" fill="black"/>
</svg>
